<?xml version="1.0" encoding="UTF-8" standalone="no"?> <svg xmlns="http://www.w3.org/2000/svg" viewBox="0 0 64 64"><defs><style>.cls-1{fill:#bfad88;}.cls-1,.cls-2,.cls-3{stroke:#54596e;stroke-linecap:round;stroke-linejoin:round;stroke-width:2px;}.cls-2{fill:#f99;}.cls-3{fill:#fff;}</style></defs><title>dislike</title><g id="dislike"><path class="cls-1" d="M51,11h5.41a3.56,3.56,0,0,1,3.52,2.77C60.38,16,58.67,17,56.5,17c1.93,0,4.5,1.57,4.5,3.5A3.5,3.5,0,0,1,57.5,24a3.5,3.5,0,0,1,0,7,3.5,3.5,0,0,1,3.43,4.23A3.56,3.56,0,0,1,57.41,38H47V49.36A5.64,5.64,0,0,1,41.36,55h0A1.36,1.36,0,0,1,40,53.64V49.73c0-8.2-5.25-13.48-13-16.07L15,34V14l14.5,1a2.43,2.43,0,0,0,1.26-.35,20.6,20.6,0,0,1,7.93-3.06Z"/><path class="cls-2" d="M14.86,34.07c-1.66,0-3-4-3-10s1.34-10,3-10,3,4,3,10S16.51,34.07,14.86,34.07Z"/><path class="cls-3" d="M15,20H10a4,4,0,1,0-4,4,4,4,0,1,0,4,4h5"/><line class="cls-1" x1="54" y1="31" x2="57" y2="31"/><line class="cls-1" x1="56" y1="24" x2="57" y2="24"/><line class="cls-1" x1="43" y1="38" x2="51" y2="38"/></g></svg>