<?xml version="1.0" encoding="UTF-8" standalone="no"?> <svg xmlns="http://www.w3.org/2000/svg" viewBox="0 0 64 64"><defs><style>.cls-1{fill:#8065c4;}.cls-1,.cls-2,.cls-3,.cls-4,.cls-6{stroke:#54596e;stroke-width:2px;}.cls-1,.cls-2,.cls-3,.cls-4,.cls-5,.cls-6{stroke-linecap:round;stroke-linejoin:round;}.cls-2{fill:#ffb8f2;}.cls-3{fill:#f3f3f3;}.cls-4,.cls-5{fill:none;}.cls-5{stroke:#ff927d;}.cls-6{fill:#fff;}</style></defs><title>clock</title><g id="clock"><rect class="cls-1" x="30" y="13" width="4" height="8"/><circle class="cls-2" cx="32" cy="40" r="23"/><circle class="cls-3" cx="32" cy="40" r="20"/><rect class="cls-1" x="28" y="6" width="8" height="7"/><circle class="cls-4" cx="32" cy="9" r="8"/><line class="cls-4" x1="17" y1="40" x2="14" y2="40"/><line class="cls-4" x1="50" y1="40" x2="47" y2="40"/><line class="cls-4" x1="32" y1="55" x2="32" y2="58"/><line class="cls-4" x1="32" y1="22" x2="32" y2="25"/><line class="cls-5" x1="17.5" y1="32.5" x2="39.5" y2="43.5"/><circle class="cls-6" cx="32" cy="40" r="2"/><path class="cls-4" d="M25,47.07A11.77,11.77,0,0,0,32,49a11.85,11.85,0,0,0,7-1.9"/><path class="cls-4" d="M37,32.5a2,2,0,0,1,4,0"/><path class="cls-4" d="M23,32.5a2,2,0,0,1,4,0"/></g></svg>