<?xml version="1.0" encoding="UTF-8" standalone="no"?> <svg xmlns="http://www.w3.org/2000/svg" viewBox="0 0 64 64"><defs><style>.cls-1{fill:#d8d8d8;}.cls-1,.cls-4{stroke:#54596e;stroke-width:2px;}.cls-1,.cls-3,.cls-4{stroke-linecap:round;stroke-linejoin:round;}.cls-2{fill:#54596e;}.cls-3,.cls-4{fill:none;}.cls-3{stroke:#ff80c3;stroke-width:3px;}.cls-5{fill:#adadad;}</style></defs><title>gdpr-compliance</title><g id="gdpr-compliance"><circle class="cls-1" cx="30" cy="27" r="21"/><path class="cls-2" d="M27.22,55H24.17A1.09,1.09,0,0,0,23,56v6a1.09,1.09,0,0,0,1.17,1h4.67A1.09,1.09,0,0,0,30,62V57.38A2.61,2.61,0,0,0,27.22,55Zm.45,6H25.33V57h1.89a.42.42,0,0,1,.45.38Z"/><path class="cls-2" d="M46.24,61.9l-1-1.46A1,1,0,0,0,46,59.5V56a1,1,0,0,0-1.08-1H40.08A1,1,0,0,0,39,56v6a1.08,1.08,0,0,0,2.15,0V60.5h1.63l1.51,2.2a.7.7,0,0,0,.58.3h.8A.7.7,0,0,0,46.24,61.9ZM41.15,57h2.69v1.5H41.15Z"/><path class="cls-2" d="M20.86,58H18a1,1,0,1,0,0,2h1.71v1H16.29V57h3.43a1,1,0,1,0,0-2H15.14A1.08,1.08,0,0,0,14,56v6a1.08,1.08,0,0,0,1.14,1h5.71A1.08,1.08,0,0,0,22,62V59A1.08,1.08,0,0,0,20.86,58Z"/><path class="cls-2" d="M36.92,55H32.08A1,1,0,0,0,31,56v6a1.08,1.08,0,0,0,2.15,0V60.5h3.77a1,1,0,0,0,1.08-1V56A1,1,0,0,0,36.92,55Zm-1.08,3.5H33.15V57h2.69Z"/><circle class="cls-3" cx="30" cy="27" r="25"/><path class="cls-4" d="M35.1,39A7,7,0,0,0,30,37.07a7,7,0,0,0-5.1,1.9"/><circle class="cls-2" cx="21" cy="27" r="2"/><circle class="cls-2" cx="39" cy="27" r="2"/><circle class="cls-5" cx="39" cy="33" r="2"/><circle class="cls-5" cx="21" cy="33" r="2"/><line class="cls-3" x1="12.76" y1="45.1" x2="47.67" y2="10.19"/></g></svg>