<?xml version="1.0" encoding="UTF-8" standalone="no"?> <svg xmlns="http://www.w3.org/2000/svg" viewBox="0 0 64 64"><defs><style>.cls-1{fill:#ffb8f2;}.cls-1,.cls-3,.cls-5,.cls-6,.cls-7{stroke:#54596e;stroke-linecap:round;stroke-linejoin:round;stroke-width:2px;}.cls-2,.cls-4,.cls-7{fill:#54596e;}.cls-2{opacity:0.2;}.cls-3{fill:#55a6ff;}.cls-5{fill:#a1b7ff;}.cls-6{fill:none;}</style></defs><title>shopping</title><g id="shopping"><polygon class="cls-1" points="31 60 3 60 4 54.45 4 15 30 15 30 54.19 31 60"/><polygon class="cls-2" points="30 54.19 30 15 24 15 24 54.19 25 60 31 60 30 54.19"/><polyline class="cls-3" points="25 46 25 22 60 22 60 46"/><circle class="cls-4" cx="34.5" cy="29.5" r="1.5"/><circle class="cls-4" cx="8.5" cy="28.5" r="1.5"/><circle class="cls-4" cx="20.5" cy="28.5" r="1.5"/><circle class="cls-4" cx="54.5" cy="29.5" r="1.5"/><polyline class="cls-3" points="38 45 25 45 24 52 61 52 60 45 52 45"/><rect class="cls-3" x="33" y="12" width="4" height="10"/><rect class="cls-3" x="48" y="12" width="4" height="10"/><polygon class="cls-5" points="50 8 35 8 33 12 52 12 50 8"/><rect class="cls-3" x="8" y="5" width="4" height="10"/><rect class="cls-3" x="22" y="5" width="4" height="10"/><polygon class="cls-5" points="24.11 1 9.89 1 8 5 26 5 24.11 1"/><rect class="cls-1" x="44" y="41" width="8" height="7"/><line class="cls-6" x1="16" y1="54" x2="5" y2="54"/><path class="cls-7" d="M38.74,33.46a.68.68,0,0,0-.65,1,7.6,7.6,0,0,0,12.82,0,.68.68,0,0,0-.65-1l-4.68.44a11.32,11.32,0,0,1-2.15,0Z"/><ellipse class="cls-7" cx="14" cy="35.5" rx="2" ry="2.5"/></g></svg>