<?xml version="1.0" encoding="UTF-8" standalone="no"?> <svg xmlns="http://www.w3.org/2000/svg" viewBox="0 0 64 64"><defs><style>.cls-1{isolation:isolate;}.cls-2{fill:#999;}.cls-2,.cls-3,.cls-4,.cls-7,.cls-8{stroke:#54596e;stroke-linecap:round;stroke-linejoin:round;stroke-width:2px;}.cls-3{fill:#ffd578;}.cls-4{fill:#55a6ff;}.cls-5,.cls-6{fill:#54596e;}.cls-5{opacity:0.71;}.cls-7,.cls-8{fill:none;}.cls-8{opacity:0.1;mix-blend-mode:multiply;}</style></defs><title>muslim-female</title><g class="cls-1"><g id="muslim-female"><path class="cls-2" d="M51,49.83V21a19,19,0,0,0-38,0V50h.39A7.37,7.37,0,0,0,9,56.49V63H55V55.63A6.56,6.56,0,0,0,51,49.83Z"/><path class="cls-3" d="M43,19.78c-2.84-11.38-19.19-11.38-22,0A26.22,26.22,0,0,0,20,27c0,11.13,5.15,21.41,12,23.54C38.85,48.41,44,38.13,44,27A26.22,26.22,0,0,0,43,19.78Z"/><path class="cls-4" d="M21,22.78c2.84-11.38,19.19-11.38,22,0A27.58,27.58,0,0,1,44,28.46c0-.48,0-1,0-1.46a26.22,26.22,0,0,0-1-7.22c-2.84-11.38-19.19-11.38-22,0A26.22,26.22,0,0,0,20,27c0,.49,0,1,0,1.46A27.58,27.58,0,0,1,21,22.78Z"/><path class="cls-5" d="M43.78,31A98.77,98.77,0,0,0,32,29.25,98.77,98.77,0,0,0,20.22,31C21.27,40.49,26,48.67,32,50.54,38,48.67,42.73,40.49,43.78,31Z"/><circle class="cls-6" cx="25.5" cy="23.5" r="1.5"/><circle class="cls-6" cx="38.5" cy="23.5" r="1.5"/><line class="cls-7" x1="21" y1="35" x2="21" y2="44"/><line class="cls-7" x1="43" y1="35" x2="43" y2="44"/><path class="cls-7" d="M51,50s-3-2-12,4-20-4-20-4H13"/><path class="cls-7" d="M9.09,55.41S12,55,16,59s7,4,7,4"/><path class="cls-7" d="M53,51.21S47,53,45,57"/><path class="cls-8" d="M15,53a10.58,10.58,0,0,1,5,3c3,3,14,5,18,3"/></g></g></svg>