<?xml version="1.0" encoding="UTF-8" standalone="no"?> <svg xmlns="http://www.w3.org/2000/svg" viewBox="0 0 64 64"><defs><style>.cls-1{fill:#dfdfdf;}.cls-1,.cls-3,.cls-4,.cls-6{stroke:#54596e;stroke-linecap:round;stroke-linejoin:round;stroke-width:2px;}.cls-2,.cls-5{fill:#54596e;}.cls-2{opacity:0.15;}.cls-3{fill:none;}.cls-4{fill:#9af43b;}.cls-6{fill:#fff35f;}</style></defs><title>radio</title><g id="radio"><rect class="cls-1" x="15" y="13" width="35" height="49" rx="4.87" ry="4.87"/><path class="cls-2" d="M45.13,58H19.87A4.87,4.87,0,0,1,15,53.13v4A4.87,4.87,0,0,0,19.87,62H45.13A4.87,4.87,0,0,0,50,57.13v-4A4.87,4.87,0,0,1,45.13,58Z"/><line class="cls-3" x1="28" y1="16" x2="36" y2="16"/><rect class="cls-4" x="15" y="19" width="35" height="23"/><path class="cls-3" d="M27.86,33.07A7,7,0,0,0,33,35a7,7,0,0,0,5.1-1.9"/><circle class="cls-5" cx="24" cy="28" r="2"/><circle class="cls-5" cx="42" cy="28" r="2"/><circle class="cls-6" cx="32.5" cy="50" r="4.5"/><circle class="cls-5" cx="32.5" cy="50" r="1.5"/><circle class="cls-5" cx="43.5" cy="50.5" r="1.5"/><circle class="cls-5" cx="21.5" cy="50.5" r="1.5"/><rect class="cls-1" x="39" y="1" width="3" height="12"/><path class="cls-3" d="M16,8a7,7,0,0,0-7,7"/><path class="cls-3" d="M16,4A11,11,0,0,0,5,15"/></g></svg>